<?xml version="1.0" encoding="utf-8"?>
<svg viewBox="0 0 3000 3000" xmlns="http://www.w3.org/2000/svg">
  <path fill-rule="evenodd" fill-opacity="1" d="M 1500 0.0117188 C 2328.421875 0.0117188 2999.988281 671.578125 2999.988281 1500 C 2999.988281 2328.421875 2328.421875 2999.996094 1500 2999.996094 C 671.578125 2999.996094 0.00390625 2328.421875 0.00390625 1500 C 0.00390625 671.578125 671.578125 0.0117188 1500 0.0117188 " style="fill: rgb(255, 255, 255);" transform="matrix(1, 0, 0, 1, 0, 2.2737367544323206e-13)"/>
  <path fill-rule="nonzero" fill="rgb(14.501953%, 5.488586%, 11.767578%)" fill-opacity="1" d="M 1246.730469 1060.589844 C 1232.941406 1057.550781 1219.289062 1066.261719 1216.25 1080.050781 C 1213.210938 1093.828125 1221.921875 1107.480469 1235.699219 1110.519531 C 1349.160156 1135.691406 1448.21875 1199.320312 1518.539062 1287.050781 C 1587.390625 1372.941406 1628.570312 1482.058594 1628.570312 1600.871094 C 1628.570312 1739.550781 1572.371094 1865.089844 1481.488281 1955.960938 C 1390.621094 2046.835938 1265.078125 2103.046875 1126.410156 2103.046875 C 987.730469 2103.046875 862.1875 2046.835938 771.3125 1955.960938 C 680.445312 1865.089844 624.234375 1739.550781 624.234375 1600.871094 C 624.234375 1483.449219 665.058594 1373.371094 734.792969 1286.390625 C 804.257812 1199.75 902.347656 1135.929688 1017.269531 1110.480469 C 1031.050781 1107.441406 1039.769531 1093.789062 1036.71875 1080.011719 C 1033.679688 1066.21875 1020.03125 1057.511719 1006.25 1060.550781 C 879.472656 1088.628906 771.367188 1158.910156 694.886719 1254.308594 C 617.949219 1350.269531 572.898438 1471.589844 572.898438 1600.871094 C 572.898438 1753.71875 634.855469 1892.101562 735.015625 1992.261719 C 835.179688 2092.425781 973.558594 2154.382812 1126.410156 2154.382812 C 1279.25 2154.382812 1417.628906 2092.425781 1517.789062 1992.261719 C 1617.949219 1892.101562 1679.910156 1753.71875 1679.910156 1600.871094 C 1679.910156 1470.058594 1634.441406 1349.78125 1558.449219 1254.960938 C 1481.058594 1158.410156 1371.890625 1088.351562 1246.730469 1060.589844 " transform="matrix(1, 0, 0, 1, 0, 2.2737367544323206e-13)"/>
  <path fill-rule="nonzero" fill="rgb(14.501953%, 5.488586%, 11.767578%)" fill-opacity="1" d="M 957.496094 2091.691406 C 957.496094 2077.519531 946.003906 2066.023438 931.828125 2066.023438 C 917.65625 2066.023438 906.160156 2077.519531 906.160156 2091.691406 L 906.160156 2189.042969 C 906.160156 2203.214844 917.65625 2214.710938 931.828125 2214.710938 L 1322.460938 2214.710938 C 1336.628906 2214.710938 1348.128906 2203.214844 1348.128906 2189.042969 L 1348.128906 2090.574219 C 1348.128906 2076.402344 1336.628906 2064.90625 1322.460938 2064.90625 C 1308.289062 2064.90625 1296.789062 2076.402344 1296.789062 2090.574219 L 1296.789062 2163.375 L 957.496094 2163.375 L 957.496094 2091.691406 " transform="matrix(1, 0, 0, 1, 0, 2.2737367544323206e-13)"/>
  <path fill-rule="nonzero" fill="rgb(14.501953%, 5.488586%, 11.767578%)" fill-opacity="1" d="M 949.894531 616.921875 L 1302.910156 616.921875 C 1318.691406 616.921875 1333.019531 623.351562 1343.390625 633.71875 C 1353.75 644.089844 1360.191406 658.421875 1360.191406 674.199219 L 1360.191406 755.761719 C 1360.191406 771.539062 1353.75 785.859375 1343.390625 796.230469 C 1342.761719 796.851562 1342.121094 797.441406 1341.449219 797.988281 C 1331.261719 807.308594 1317.710938 813.03125 1302.910156 813.03125 L 949.894531 813.03125 C 934.113281 813.03125 919.777344 806.589844 909.421875 796.230469 C 899.050781 785.859375 892.613281 771.539062 892.613281 755.761719 L 892.613281 674.199219 C 892.613281 658.480469 899.058594 644.191406 909.414062 633.820312 L 927.5625 651.871094 L 909.40625 633.730469 L 909.855469 633.289062 C 920.1875 623.171875 934.335938 616.921875 949.894531 616.921875 Z M 1302.910156 668.25 L 949.894531 668.25 C 948.339844 668.25 946.90625 668.878906 945.828125 669.898438 L 945.722656 670.019531 L 945.714844 670.019531 L 945.664062 669.96875 C 944.601562 671.050781 943.949219 672.550781 943.949219 674.199219 L 943.949219 755.761719 C 943.949219 757.359375 944.632812 758.851562 945.71875 759.929688 C 946.800781 761.019531 948.285156 761.699219 949.894531 761.699219 L 1302.910156 761.699219 C 1304.28125 761.699219 1305.539062 761.238281 1306.550781 760.480469 L 1307.089844 759.929688 C 1308.171875 758.851562 1308.851562 757.359375 1308.851562 755.761719 L 1308.851562 674.199219 C 1308.851562 672.589844 1308.171875 671.109375 1307.089844 670.019531 C 1306 668.929688 1304.511719 668.25 1302.910156 668.25 Z M 909.855469 633.289062 C 919.90625 623.699219 935.832031 623.839844 945.710938 633.710938 L 909.855469 633.289062 " transform="matrix(1, 0, 0, 1, 0, 2.2737367544323206e-13)"/>
  <path fill-rule="nonzero" fill="rgb(14.501953%, 5.488586%, 11.767578%)" fill-opacity="1" d="M 1215.351562 1085.511719 C 1215.351562 1099.691406 1226.839844 1111.179688 1241.019531 1111.179688 C 1255.191406 1111.179688 1266.679688 1099.691406 1266.679688 1085.511719 L 1266.679688 787.371094 C 1266.679688 773.191406 1255.191406 761.699219 1241.019531 761.699219 C 1226.839844 761.699219 1215.351562 773.191406 1215.351562 787.371094 Z M 1037.449219 787.371094 C 1037.449219 773.191406 1025.960938 761.699219 1011.78125 761.699219 C 997.609375 761.699219 986.117188 773.191406 986.117188 787.371094 L 986.117188 1085.511719 C 986.117188 1099.691406 997.609375 1111.179688 1011.78125 1111.179688 C 1025.960938 1111.179688 1037.449219 1099.691406 1037.449219 1085.511719 L 1037.449219 787.371094 " transform="matrix(1, 0, 0, 1, 0, 2.2737367544323206e-13)"/>
  <path fill-rule="nonzero" fill="rgb(14.501953%, 5.488586%, 11.767578%)" fill-opacity="1" d="M 1126.410156 1983.058594 C 1140.578125 1983.058594 1152.070312 1971.558594 1152.070312 1957.390625 C 1152.070312 1943.21875 1140.578125 1931.71875 1126.410156 1931.71875 C 1035.039062 1931.71875 952.324219 1894.691406 892.457031 1834.820312 C 832.59375 1774.960938 795.558594 1692.238281 795.558594 1600.871094 C 795.558594 1590.089844 795.984375 1580.011719 796.839844 1570.691406 C 797.738281 1560.820312 799.125 1550.828125 800.976562 1540.789062 C 803.523438 1526.898438 794.320312 1513.558594 780.421875 1511.011719 C 766.527344 1508.460938 753.1875 1517.671875 750.644531 1531.558594 C 748.5625 1542.851562 746.976562 1554.378906 745.90625 1566.078125 C 744.785156 1578.328125 744.222656 1589.949219 744.222656 1600.871094 C 744.222656 1706.410156 786.996094 1801.960938 856.160156 1871.121094 C 925.320312 1940.28125 1020.871094 1983.058594 1126.410156 1983.058594 " transform="matrix(1, 0, 0, 1, 0, 2.2737367544323206e-13)"/>
  <path fill-rule="nonzero" fill="rgb(14.501953%, 5.488586%, 11.767578%)" fill-opacity="1" d="M 1007.878906 1823.539062 C 1022.058594 1823.539062 1033.550781 1812.050781 1033.550781 1797.871094 C 1033.550781 1783.699219 1022.058594 1772.210938 1007.878906 1772.210938 C 981.574219 1772.210938 957.816406 1761.601562 940.6875 1744.46875 L 922.535156 1762.519531 L 940.691406 1744.371094 L 940.503906 1744.191406 C 923.414062 1727.011719 912.851562 1703.320312 912.851562 1677.171875 C 912.851562 1671.089844 913.355469 1665.289062 914.351562 1659.878906 C 916.898438 1645.980469 907.691406 1632.640625 893.796875 1630.101562 C 879.902344 1627.550781 866.5625 1636.761719 864.015625 1650.648438 C 862.355469 1659.679688 861.515625 1668.558594 861.515625 1677.171875 C 861.515625 1717.339844 877.714844 1753.738281 903.90625 1780.179688 L 904.382812 1780.671875 L 904.386719 1780.660156 L 904.386719 1780.671875 L 904.4375 1780.621094 C 930.980469 1807.140625 967.558594 1823.539062 1007.878906 1823.539062 " transform="matrix(1, 0, 0, 1, 0, 2.2737367544323206e-13)"/>
  <path fill-rule="nonzero" fill="rgb(14.501953%, 5.488586%, 11.767578%)" fill-opacity="1" d="M 1611.789062 1409.300781 C 1625.738281 1407.089844 1635.261719 1393.96875 1633.050781 1380.019531 C 1630.839844 1366.070312 1617.71875 1356.550781 1603.769531 1358.761719 C 1460.058594 1381.71875 1315.78125 1366.078125 1171.039062 1350.390625 C 996.035156 1331.410156 820.328125 1312.359375 638.753906 1359.269531 C 625.082031 1362.808594 616.867188 1376.769531 620.40625 1390.449219 C 623.949219 1404.121094 637.914062 1412.328125 651.589844 1408.789062 C 823.9375 1364.261719 995.113281 1382.828125 1165.621094 1401.320312 C 1313.628906 1417.371094 1461.179688 1433.371094 1611.789062 1409.300781 " transform="matrix(1, 0, 0, 1, 0, 2.2737367544323206e-13)"/>
  <path fill-rule="nonzero" fill="rgb(14.501953%, 5.488586%, 11.767578%)" fill-opacity="1" d="M 586.554688 570.179688 C 603.390625 647.550781 638.359375 705.621094 667.417969 753.878906 C 696.074219 801.46875 719.589844 840.5 719.589844 883.828125 C 719.589844 931.75 707.851562 980.210938 677.945312 1015.109375 C 652.304688 1045.019531 614.515625 1064.339844 561.199219 1064.339844 C 507.890625 1064.339844 470.105469 1045.019531 444.46875 1015.109375 C 414.558594 980.210938 402.820312 931.75 402.820312 883.828125 C 402.820312 840.5 426.328125 801.46875 454.992188 753.878906 C 484.21875 705.351562 519.417969 646.890625 536.132812 568.859375 L 561.199219 574.171875 L 536.101562 568.800781 C 539.070312 554.941406 552.71875 546.109375 566.578125 549.078125 C 577.257812 551.359375 584.941406 560 586.554688 570.179688 Z M 623.5 780.339844 C 603.09375 746.449219 579.960938 708.039062 561.199219 661.308594 C 542.445312 708.039062 519.3125 746.460938 498.910156 780.339844 C 474.324219 821.160156 454.15625 854.648438 454.15625 883.828125 C 454.15625 920.859375 462.394531 957.339844 483.371094 981.820312 C 499.605469 1000.761719 524.652344 1013 561.199219 1013 C 597.757812 1013 622.796875 1000.761719 639.039062 981.820312 C 660.015625 957.339844 668.253906 920.859375 668.253906 883.828125 C 668.253906 854.648438 648.082031 821.171875 623.5 780.339844 " transform="matrix(1, 0, 0, 1, 0, 2.2737367544323206e-13)"/>
  <path fill-rule="nonzero" fill="rgb(14.501953%, 5.488586%, 11.767578%)" fill-opacity="1" d="M 1979.648438 1739.679688 C 1929 1751.078125 1879.828125 1748.761719 1841.140625 1735.738281 C 1797.851562 1721.171875 1766.671875 1693.160156 1757.898438 1655.171875 C 1749.140625 1617.238281 1764.871094 1578.429688 1797.378906 1546.351562 C 1826.75 1517.371094 1870.589844 1493.5 1921.921875 1481.640625 C 1973.171875 1469.800781 2023 1472.03125 2062.121094 1485.199219 C 2105.410156 1499.761719 2136.589844 1527.78125 2145.371094 1565.761719 C 2154.121094 1603.691406 2138.390625 1642.5 2105.890625 1674.578125 C 2076.519531 1703.558594 2032.710938 1727.421875 1981.398438 1739.28125 L 1981.421875 1739.339844 C 1980.820312 1739.46875 1980.238281 1739.589844 1979.648438 1739.679688 Z M 1857.378906 1687.210938 C 1887.609375 1697.390625 1926.898438 1699.011719 1968.25 1689.738281 C 1969.300781 1689.421875 1970.371094 1689.171875 1971.460938 1689 C 2012.648438 1679.230469 2047.261719 1660.519531 2069.988281 1638.078125 C 2089.871094 1618.46875 2099.921875 1596.609375 2095.441406 1577.191406 C 2090.960938 1557.828125 2072.351562 1542.621094 2045.878906 1533.71875 C 2015.25 1523.410156 1975.320312 1521.878906 1933.351562 1531.570312 C 1891.480469 1541.25 1856.28125 1560.140625 1833.269531 1582.851562 C 1813.398438 1602.460938 1803.339844 1624.320312 1807.828125 1643.75 C 1812.300781 1663.109375 1830.910156 1678.308594 1857.378906 1687.210938 " transform="matrix(1, 0, 0, 1, 0, 2.2737367544323206e-13)"/>
  <path fill-rule="nonzero" fill="rgb(14.501953%, 5.488586%, 11.767578%)" fill-opacity="1" d="M 1883.75 2023.96875 C 1884.800781 2023.65625 1885.871094 2023.414062 1886.96875 2023.230469 C 1928.160156 2013.453125 1962.769531 1994.738281 1985.488281 1972.328125 C 2005.378906 1952.710938 2015.429688 1930.851562 2010.941406 1911.429688 C 2006.46875 1892.058594 1987.859375 1876.859375 1961.390625 1867.960938 C 1931.160156 1857.78125 1891.871094 1856.160156 1850.519531 1865.429688 C 1849.46875 1865.75 1848.398438 1865.988281 1847.300781 1866.171875 C 1806.109375 1875.949219 1771.511719 1894.660156 1748.78125 1917.089844 C 1728.898438 1936.699219 1718.851562 1958.558594 1723.339844 1977.980469 C 1727.808594 1997.339844 1746.421875 2012.546875 1772.878906 2021.453125 C 1803.109375 2031.625 1842.390625 2033.242188 1883.75 2023.96875 Z M 1895.140625 2073.910156 C 1844.5 2085.3125 1795.328125 2082.996094 1756.640625 2069.980469 C 1713.359375 2055.40625 1682.179688 2027.394531 1673.410156 1989.410156 C 1664.648438 1951.480469 1680.378906 1912.671875 1712.878906 1880.589844 C 1742.25 1851.609375 1786.070312 1827.75 1837.371094 1815.890625 L 1837.359375 1815.828125 C 1837.949219 1815.699219 1838.53125 1815.578125 1839.128906 1815.488281 C 1889.769531 1804.089844 1938.941406 1806.410156 1977.628906 1819.429688 C 2020.929688 1834 2052.101562 1862.011719 2060.871094 1900 C 2069.628906 1937.929688 2053.910156 1976.738281 2021.390625 2008.828125 C 1992.019531 2037.792969 1948.199219 2061.65625 1896.898438 2073.515625 L 1896.910156 2073.574219 C 1896.320312 2073.710938 1895.738281 2073.820312 1895.140625 2073.910156 " transform="matrix(1, 0, 0, 1, 0, 2.2737367544323206e-13)"/>
  <path fill-rule="nonzero" fill="rgb(14.501953%, 5.488586%, 11.767578%)" fill-opacity="1" d="M 1989.199219 2333.15625 C 1988.710938 2334.132812 1988.160156 2335.058594 1987.558594 2335.9375 C 1960.820312 2380.542969 1925.148438 2414.582031 1888.988281 2433.601562 C 1848.589844 2454.859375 1806.828125 2458.085938 1773.320312 2438.234375 L 1786.359375 2416.175781 L 1782.921875 2421.984375 L 1773.320312 2438.230469 L 1773.300781 2438.21875 L 1773.28125 2438.261719 C 1772.75 2437.945312 1772.238281 2437.621094 1771.75 2437.277344 C 1739.261719 2417.175781 1722.550781 2379.476562 1721.800781 2334.523438 C 1721.101562 2293.625 1733.800781 2246.003906 1760.050781 2201.15625 C 1760.550781 2200.171875 1761.121094 2199.234375 1761.71875 2198.34375 C 1788.460938 2153.734375 1824.121094 2119.710938 1860.269531 2100.6875 C 1900.671875 2079.429688 1942.429688 2076.203125 1975.941406 2096.054688 C 2009.460938 2115.898438 2026.699219 2154.09375 2027.46875 2199.773438 C 2028.160156 2240.671875 2015.460938 2288.3125 1989.199219 2333.15625 Z M 1865.128906 2388.277344 C 1893.421875 2373.398438 1921.761719 2346.023438 1943.578125 2309.632812 L 1944.261719 2308.390625 L 1944.300781 2308.414062 C 1966.238281 2271.355469 1976.878906 2232.851562 1976.339844 2200.574219 C 1975.871094 2172.660156 1967 2150.320312 1949.871094 2140.171875 C 1932.738281 2130.027344 1908.859375 2132.996094 1884.128906 2146.007812 C 1855.859375 2160.882812 1827.539062 2188.246094 1805.730469 2224.609375 C 1805.28125 2225.46875 1804.789062 2226.3125 1804.238281 2227.125 C 1782.789062 2263.804688 1772.390625 2301.800781 1772.929688 2333.722656 C 1773.390625 2361.070312 1781.910156 2383.070312 1798.371094 2393.488281 C 1799.089844 2393.867188 1799.769531 2394.269531 1800.460938 2394.71875 C 1817.5 2404.132812 1840.910156 2401.019531 1865.128906 2388.277344 Z M 1800.460938 2394.71875 C 1801.890625 2395.660156 1803.25 2396.761719 1804.5 2398.019531 L 1800.460938 2394.71875 " transform="matrix(1, 0, 0, 1, 0, 2.2737367544323206e-13)"/>
  <path fill-rule="nonzero" fill="rgb(14.501953%, 5.488586%, 11.767578%)" fill-opacity="1" d="M 1978.410156 2158.722656 C 1970.109375 2170.125 1972.621094 2186.113281 1984.03125 2194.417969 C 1995.429688 2202.726562 2011.421875 2200.210938 2019.730469 2188.804688 C 2038.980469 2162.355469 2061.699219 2142.082031 2084.441406 2129.824219 C 2104.839844 2118.828125 2124.589844 2114.597656 2140.601562 2118.757812 C 2142.328125 2119.210938 2144.210938 2119.855469 2146.230469 2120.695312 C 2147.609375 2121.265625 2148.980469 2121.933594 2150.328125 2122.675781 C 2151.03125 2123.136719 2151.730469 2123.550781 2152.460938 2123.933594 C 2168.921875 2134.347656 2177.441406 2156.351562 2177.910156 2183.695312 C 2178.449219 2215.972656 2167.828125 2254.464844 2145.878906 2291.527344 L 2145.851562 2291.507812 C 2145.601562 2291.910156 2145.378906 2292.316406 2145.171875 2292.726562 C 2123.351562 2329.136719 2095 2356.53125 2066.710938 2371.417969 C 2041.980469 2384.429688 2018.101562 2387.398438 2000.96875 2377.253906 C 1995.121094 2373.792969 1990.269531 2368.960938 1986.449219 2363.070312 C 1982.019531 2356.257812 1978.808594 2347.917969 1976.828125 2338.4375 C 1973.960938 2324.597656 1960.390625 2315.710938 1946.550781 2318.585938 C 1932.710938 2321.460938 1923.820312 2335.027344 1926.699219 2348.867188 C 1929.949219 2364.460938 1935.570312 2378.6875 1943.53125 2390.941406 C 1951.660156 2403.460938 1962.121094 2413.804688 1974.898438 2421.371094 C 2008.410156 2441.226562 2050.160156 2437.996094 2090.558594 2416.738281 C 2126.71875 2397.71875 2162.390625 2363.675781 2189.140625 2319.0625 C 2189.730469 2318.175781 2190.289062 2317.246094 2190.789062 2316.269531 C 2217.039062 2271.429688 2229.738281 2223.796875 2229.039062 2182.898438 C 2228.28125 2137.949219 2211.570312 2100.257812 2179.109375 2080.15625 C 2178.609375 2079.8125 2178.089844 2079.480469 2177.558594 2079.164062 L 2177.539062 2079.207031 L 2177.511719 2079.191406 L 2166.878906 2097.179688 L 2164.46875 2101.246094 L 2177.511719 2079.1875 C 2173.78125 2076.976562 2169.890625 2075.027344 2165.890625 2073.371094 C 2162.039062 2071.769531 2157.871094 2070.382812 2153.441406 2069.230469 C 2124.429688 2061.6875 2091.738281 2067.6875 2060.179688 2084.703125 C 2031.058594 2100.398438 2002.328125 2125.855469 1978.410156 2158.722656 " transform="matrix(1, 0, 0, 1, 0, 2.2737367544323206e-13)"/>
  <path fill-rule="nonzero" fill="rgb(14.501953%, 5.488586%, 11.767578%)" fill-opacity="1" d="M 2515.78125 1959.589844 C 2526.230469 2011.242188 2522.679688 2060.996094 2508.480469 2099.664062 C 2492.75 2142.480469 2463.878906 2172.84375 2425.609375 2180.589844 C 2387.441406 2188.316406 2349.058594 2171.546875 2317.910156 2138.195312 C 2289.789062 2108.097656 2267.148438 2063.613281 2256.691406 2011.910156 C 2246.230469 1960.261719 2249.789062 1910.511719 2263.988281 1871.839844 C 2279.710938 1829.019531 2308.589844 1798.660156 2346.859375 1790.910156 C 2385.03125 1783.191406 2423.410156 1799.960938 2454.558594 1833.300781 C 2482.679688 1863.398438 2505.308594 1907.890625 2515.78125 1959.589844 Z M 2460.339844 2082.019531 C 2471.519531 2051.597656 2474.160156 2011.722656 2465.640625 1969.621094 C 2457.140625 1927.570312 2439.179688 1891.878906 2417.058594 1868.199219 C 2397.96875 1847.769531 2376.390625 1837.101562 2356.878906 1841.050781 C 2337.460938 1844.980469 2321.769531 1863.199219 2312.121094 1889.480469 C 2300.949219 1919.898438 2298.300781 1959.78125 2306.820312 2001.882812 C 2315.328125 2043.933594 2333.28125 2079.617188 2355.410156 2103.304688 C 2374.488281 2123.734375 2396.070312 2134.402344 2415.589844 2130.457031 C 2435.011719 2126.523438 2450.691406 2108.300781 2460.339844 2082.019531 " transform="matrix(1, 0, 0, 1, 0, 2.2737367544323206e-13)"/>
  <path fill-rule="nonzero" fill="rgb(14.501953%, 5.488586%, 11.767578%)" fill-opacity="1" d="M 1944.148438 2100.765625 C 1934.578125 2111.121094 1935.199219 2127.289062 1945.558594 2136.863281 C 1955.910156 2146.4375 1972.078125 2145.8125 1981.648438 2135.460938 C 2104.359375 2002.71875 2223.539062 1853.421875 2330.628906 1695.410156 C 2431.769531 1546.160156 2522.21875 1389.058594 2594.78125 1230.699219 C 2600.640625 1217.851562 2594.988281 1202.679688 2582.140625 1196.808594 C 2569.300781 1190.941406 2554.121094 1196.601562 2548.25 1209.449219 C 2476.871094 1365.261719 2387.859375 1519.839844 2288.308594 1666.730469 C 2182.621094 1822.699219 2065.078125 1969.949219 1944.148438 2100.765625 " transform="matrix(1, 0, 0, 1, 0, 2.2737367544323206e-13)"/>
  <path fill-rule="nonzero" fill="rgb(14.501953%, 5.488586%, 11.767578%)" fill-opacity="1" d="M 2158.960938 1916.351562 C 2157.191406 1902.339844 2144.390625 1892.421875 2130.390625 1894.191406 C 2116.378906 1895.960938 2106.460938 1908.761719 2108.230469 1922.761719 L 2130.640625 2100.214844 C 2132.410156 2114.222656 2145.210938 2124.140625 2159.21875 2122.371094 C 2173.21875 2120.605469 2183.140625 2107.804688 2181.371094 2093.800781 L 2158.960938 1916.351562 " transform="matrix(1, 0, 0, 1, 0, 2.2737367544323206e-13)"/>
  <path fill-rule="nonzero" fill="rgb(14.501953%, 5.488586%, 11.767578%)" fill-opacity="1" d="M 2118.910156 1560.640625 C 2104.898438 1562.410156 2094.980469 1575.210938 2096.75 1589.210938 C 2098.519531 1603.21875 2111.320312 1613.140625 2125.320312 1611.371094 L 2396.660156 1576.570312 C 2410.671875 1574.808594 2420.578125 1562.011719 2418.820312 1548 C 2417.050781 1533.988281 2404.25 1524.078125 2390.238281 1525.839844 L 2118.910156 1560.640625 " transform="matrix(1, 0, 0, 1, 0, 2.2737367544323206e-13)"/>
  <path fill-rule="nonzero" fill="rgb(14.501953%, 5.488586%, 11.767578%)" fill-opacity="1" d="M 2328.101562 1825.609375 C 2333.410156 1838.738281 2348.371094 1845.070312 2361.488281 1839.75 C 2374.609375 1834.441406 2380.941406 1819.488281 2375.628906 1806.359375 L 2325.519531 1682.78125 C 2320.199219 1669.660156 2305.25 1663.320312 2292.128906 1668.640625 C 2279.011719 1673.960938 2272.679688 1688.910156 2277.988281 1702.03125 L 2328.101562 1825.609375 " transform="matrix(1, 0, 0, 1, 0, 2.2737367544323206e-13)"/>
  <path fill-rule="nonzero" fill="rgb(14.501953%, 5.488586%, 11.767578%)" fill-opacity="1" d="M 2023.78125 1883.140625 C 2011.320312 1889.839844 2006.648438 1905.378906 2013.351562 1917.839844 C 2020.050781 1930.289062 2035.589844 1934.96875 2048.039062 1928.269531 L 2232.949219 1828.78125 C 2245.398438 1822.078125 2250.070312 1806.539062 2243.378906 1794.089844 C 2236.679688 1781.628906 2221.140625 1776.960938 2208.679688 1783.660156 L 2023.78125 1883.140625 " transform="matrix(1, 0, 0, 1, 0, 2.2737367544323206e-13)"/>
  <path fill-rule="evenodd" fill="rgb(65.429688%, 100%, 100%)" fill-opacity="1" d="M 639.035156 981.820312 C 660.015625 957.339844 668.253906 920.859375 668.253906 883.828125 C 668.253906 854.660156 648.082031 821.171875 623.5 780.339844 C 603.089844 746.449219 579.960938 708.039062 561.199219 661.308594 C 542.445312 708.039062 519.3125 746.460938 498.90625 780.339844 C 474.324219 821.160156 454.15625 854.648438 454.15625 883.828125 C 454.15625 920.859375 462.390625 957.339844 483.371094 981.820312 C 499.605469 1000.769531 524.652344 1013 561.199219 1013 C 597.757812 1013 622.796875 1000.769531 639.035156 981.820312 " transform="matrix(1, 0, 0, 1, 0, 2.2737367544323206e-13)"/>
  <path fill-rule="evenodd" fill="rgb(93.359375%, 94.53125%, 94.921875%)" fill-opacity="1" d="M 945.714844 670.019531 Z M 949.894531 761.699219 L 1302.910156 761.699219 L 1308.851562 755.761719 L 1308.851562 674.199219 L 1302.910156 668.25 L 949.894531 668.25 L 945.660156 669.96875 C 944.605469 671.050781 943.949219 672.550781 943.949219 674.199219 L 943.949219 755.761719 L 949.894531 761.699219 " transform="matrix(1, 0, 0, 1, 0, 2.2737367544323206e-13)"/>
  <path fill-rule="evenodd" fill="rgb(93.359375%, 94.53125%, 94.921875%)" fill-opacity="1" d="M 1037.449219 813.03125 L 1037.449219 1085.511719 C 1037.449219 1098.539062 1027.730469 1109.308594 1015.148438 1110.960938 C 901.144531 1136.71875 803.828125 1200.28125 734.789062 1286.390625 C 719.417969 1305.558594 705.453125 1325.859375 693.015625 1347.109375 C 855.433594 1316.160156 1013.519531 1333.308594 1171.039062 1350.390625 C 1304.160156 1364.820312 1436.878906 1379.210938 1569.140625 1363.558594 C 1554.589844 1336.46875 1537.628906 1310.859375 1518.539062 1287.050781 C 1448.621094 1199.820312 1350.28125 1136.410156 1237.621094 1110.960938 C 1225.058594 1109.300781 1215.351562 1098.53125 1215.351562 1085.511719 L 1215.351562 813.03125 L 1037.449219 813.03125 " transform="matrix(1, 0, 0, 1, 0, 2.2737367544323206e-13)"/>
  <path fill-rule="evenodd" fill="rgb(65.429688%, 100%, 100%)" fill-opacity="1" d="M 1165.621094 1401.320312 C 999.089844 1383.261719 831.917969 1365.128906 663.640625 1405.78125 C 638.160156 1466.210938 624.234375 1532.289062 624.234375 1600.871094 C 624.234375 1739.550781 680.445312 1865.089844 771.3125 1955.96875 C 862.1875 2046.832031 987.730469 2103.042969 1126.410156 2103.042969 C 1190.671875 2103.042969 1252.109375 2090.972656 1308.589844 2068.972656 C 1311.289062 2067.242188 1314.328125 2065.996094 1317.589844 2065.367188 C 1379.378906 2039.90625 1434.980469 2002.480469 1481.488281 1955.96875 C 1572.359375 1865.089844 1628.570312 1739.550781 1628.570312 1600.871094 C 1628.570312 1534.140625 1615.578125 1470.460938 1591.988281 1412.238281 C 1448.238281 1431.96875 1307.140625 1416.671875 1165.621094 1401.320312 Z M 892.457031 1834.820312 C 952.324219 1894.691406 1035.039062 1931.71875 1126.410156 1931.71875 C 1140.578125 1931.71875 1152.070312 1943.21875 1152.070312 1957.390625 C 1152.070312 1971.558594 1140.578125 1983.058594 1126.410156 1983.058594 C 1020.871094 1983.058594 925.324219 1940.28125 856.160156 1871.121094 C 786.996094 1801.960938 744.222656 1706.410156 744.222656 1600.871094 C 744.222656 1589.949219 744.789062 1578.328125 745.90625 1566.078125 C 746.976562 1554.378906 748.558594 1542.851562 750.644531 1531.570312 C 753.191406 1517.671875 766.527344 1508.460938 780.421875 1511.011719 C 794.316406 1513.558594 803.523438 1526.890625 800.980469 1540.789062 C 799.121094 1550.828125 797.738281 1560.820312 796.839844 1570.691406 C 795.988281 1580.011719 795.558594 1590.089844 795.558594 1600.871094 C 795.558594 1692.238281 832.597656 1774.949219 892.457031 1834.820312 Z M 904.4375 1780.621094 L 904.4375 1780.621094 " transform="matrix(1, 0, 0, 1, 0, 2.2737367544323206e-13)"/>
  <path fill-rule="evenodd" fill="rgb(49.804688%, 88.671875%, 53.709412%)" fill-opacity="1" d="M 1833.269531 1582.851562 C 1813.390625 1602.46875 1803.339844 1624.320312 1807.828125 1643.75 C 1812.300781 1663.109375 1830.910156 1678.308594 1857.378906 1687.210938 C 1887.609375 1697.390625 1926.898438 1699.011719 1968.25 1689.730469 C 1969.300781 1689.421875 1970.371094 1689.179688 1971.460938 1689 C 2012.648438 1679.21875 2047.261719 1660.519531 2069.988281 1638.078125 C 2089.871094 1618.46875 2099.921875 1596.621094 2095.441406 1577.191406 C 2090.96875 1557.828125 2072.351562 1542.628906 2045.878906 1533.71875 C 2015.25 1523.410156 1975.320312 1521.878906 1933.359375 1531.578125 C 1891.480469 1541.238281 1856.28125 1560.140625 1833.269531 1582.851562 " transform="matrix(1, 0, 0, 1, 0, 2.2737367544323206e-13)"/>
  <path fill-rule="evenodd" fill="rgb(49.804688%, 88.671875%, 53.709412%)" fill-opacity="1" d="M 1961.390625 1867.960938 C 1931.160156 1857.78125 1891.871094 1856.160156 1850.519531 1865.429688 C 1849.46875 1865.75 1848.398438 1865.988281 1847.289062 1866.171875 C 1806.109375 1875.949219 1771.511719 1894.660156 1748.769531 1917.089844 C 1728.910156 1936.710938 1718.851562 1958.558594 1723.328125 1977.980469 C 1727.808594 1997.339844 1746.421875 2012.546875 1772.878906 2021.449219 C 1803.109375 2031.625 1842.390625 2033.238281 1883.75 2023.972656 C 1884.800781 2023.65625 1885.878906 2023.414062 1886.96875 2023.234375 C 1928.171875 2013.453125 1962.761719 1994.738281 1985.488281 1972.328125 C 2005.210938 1952.871094 2015.261719 1931.210938 2011.050781 1911.921875 C 2011.011719 1911.761719 2010.96875 1911.589844 2010.941406 1911.429688 C 2010.898438 1911.289062 2010.871094 1911.128906 2010.839844 1910.988281 C 2006.179688 1891.828125 1987.648438 1876.789062 1961.390625 1867.960938 " transform="matrix(1, 0, 0, 1, 0, 2.2737367544323206e-13)"/>
  <path fill-rule="evenodd" fill="rgb(49.804688%, 88.671875%, 53.709412%)" fill-opacity="1" d="M 1944.300781 2308.410156 Z M 1948.570312 2139.261719 C 1910.019531 2119.472656 1841.089844 2161.230469 1805.730469 2224.609375 C 1783.488281 2264.449219 1772.320312 2297.644531 1772.929688 2333.722656 C 1773.949219 2393.761719 1812.011719 2416.226562 1865.128906 2388.277344 C 1885.519531 2377.550781 1909.339844 2357.429688 1928.191406 2332.820312 C 1929.488281 2329.992188 1931.339844 2327.53125 1933.558594 2325.484375 C 1937.429688 2319.957031 1941.03125 2314.242188 1944.300781 2308.410156 C 1966.238281 2271.359375 1976.878906 2232.847656 1976.339844 2200.574219 C 1976.21875 2193.78125 1975.679688 2187.570312 1974.761719 2181.90625 C 1973.839844 2179.507812 1973.300781 2176.957031 1973.21875 2174.320312 C 1969.25 2158.246094 1961.730469 2147.449219 1951.890625 2141.164062 C 1950.75 2140.621094 1949.640625 2139.984375 1948.570312 2139.261719 " transform="matrix(1, 0, 0, 1, 0, 2.2737367544323206e-13)"/>
  <path fill-rule="evenodd" fill="rgb(49.804688%, 88.671875%, 53.709412%)" fill-opacity="1" d="M 2145.878906 2291.527344 Z M 2026.25 2180.34375 C 2031.980469 2230.144531 2015.230469 2288.714844 1989.199219 2333.160156 C 1988.710938 2334.132812 1988.148438 2335.058594 1987.558594 2335.9375 C 1984.980469 2340.246094 1982.308594 2344.457031 1979.558594 2348.566406 C 1992.058594 2385.402344 2025.890625 2392.890625 2066.699219 2371.417969 C 2096.019531 2356 2123.5 2328.75 2145.878906 2291.527344 C 2167.820312 2254.46875 2178.449219 2215.972656 2177.910156 2183.699219 C 2177.410156 2154.40625 2167.558594 2129.570312 2146.230469 2120.695312 C 2107.238281 2104.464844 2055.621094 2144.1875 2026.25 2180.34375 " transform="matrix(1, 0, 0, 1, 0, 2.2737367544323206e-13)"/>
  <path fill-rule="evenodd" fill="rgb(49.804688%, 88.671875%, 53.709412%)" fill-opacity="1" d="M 2306.820312 2001.882812 C 2315.328125 2043.929688 2333.28125 2079.617188 2355.410156 2103.300781 C 2374.488281 2123.734375 2396.070312 2134.402344 2415.589844 2130.457031 C 2435 2126.523438 2450.699219 2108.300781 2460.339844 2082.019531 C 2471.519531 2051.601562 2474.160156 2011.722656 2465.640625 1969.621094 C 2457.128906 1927.570312 2439.191406 1891.878906 2417.058594 1868.199219 C 2398.5 1848.328125 2377.589844 1837.699219 2358.511719 1840.75 C 2357.441406 1841.039062 2356.371094 1841.25 2355.300781 1841.398438 C 2336.601562 1845.980469 2321.511719 1863.921875 2312.121094 1889.480469 C 2300.949219 1919.910156 2298.300781 1959.78125 2306.820312 2001.882812 " transform="matrix(1, 0, 0, 1, 0, 2.2737367544323206e-13)"/>
  <path fill-rule="evenodd" fill="rgb(93.359375%, 94.53125%, 94.921875%)" fill-opacity="1" d="M 1296.789062 2163.375 L 1296.789062 2127.660156 C 1243.121094 2145.007812 1185.859375 2154.378906 1126.410156 2154.378906 C 1067.5 2154.378906 1010.738281 2145.179688 957.496094 2128.136719 L 957.496094 2163.375 L 1296.789062 2163.375 " transform="matrix(1, 0, 0, 1, 0, 2.2737367544323206e-13)"/>
</svg>